<svg xmlns="http://www.w3.org/2000/svg" viewBox="0 0 1200 1200"><rect width="1200" height="1200" fill="#fff"/><g fill="none" stroke="#f21b75" stroke-linecap="round" stroke-linejoin="round"><path d="M285 545 C445 185 735 185 850 205" stroke-width="42"/><path d="M327 531 C475 265 710 245 822 260" stroke="#f7a0c0" stroke-width="20"/><path d="M362 521 C500 307 708 300 804 312" stroke="#ffd3e2" stroke-width="14"/></g><g fill="#f21b75"><path d="M850 116l38 75 83 12-60 59 14 83-75-39-75 39 14-83-60-59 83-12z"/><path d="M286 155l17 35 39 6-28 27 7 38-35-18-35 18 7-38-28-27 39-6z"/><path d="M1015 230l13 26 29 4-21 20 5 29-26-14-26 14 5-29-21-20 29-4z"/><path d="M455 145l9 18 20 3-14 14 3 20-18-9-18 9 3-20-14-14 20-3z"/><path d="M708 96l8 17 19 3-14 13 4 19-17-9-17 9 4-19-14-13 19-3z"/></g><g fill="#f9c6d9"><path d="M330 635 C420 520 525 610 610 555 C720 485 842 510 930 620 L1016 700 L265 700z" opacity=".52"/><path d="M800 522 C890 455 1015 487 1056 600 C1086 681 1025 728 942 714 C880 704 852 673 805 692z" opacity=".62"/></g><g fill="none" stroke="#f21b75" stroke-width="18" stroke-linecap="round" stroke-linejoin="round"><path d="M455 670 V515 L600 385 L744 515 V670"/><path d="M425 540 L600 383 L775 540"/><path d="M705 480 V410"/><path d="M577 548 h58 v58 h-58z"/><path d="M577 577 h58 M606 548 v58"/><path d="M330 700 C560 656 805 661 1040 708"/></g><g fill="none" stroke="#f21b75" stroke-width="9" stroke-linecap="round" stroke-linejoin="round"><path d="M855 658 h115"/><path d="M875 625 h75"/><path d="M892 590 h45"/><path d="M850 658 l65-58 65 58"/><path d="M865 625 l50-45 50 45"/><path d="M883 590 l32-30 32 30"/><path d="M925 648 v-35"/><path d="M987 625 C1030 597 1072 608 1083 640"/><path d="M1012 675 C1050 645 1104 650 1115 690"/></g><g transform="translate(110 430) rotate(-18)"><rect x="92" y="0" width="38" height="230" rx="19" fill="#f21b75"/><path d="M55 212 C22 252 8 302 0 352 C72 380 150 379 220 352 C212 302 198 252 165 212z" fill="#ffd29b" stroke="#f21b75" stroke-width="16"/><path d="M70 215 h80" stroke="#f21b75" stroke-width="14" stroke-linecap="round"/><path d="M48 345 C63 300 70 255 70 220 M93 357 C105 310 110 260 110 220 M137 357 C126 310 122 260 122 220 M182 345 C167 300 160 255 160 220" stroke="#f21b75" stroke-width="7" stroke-linecap="round"/></g><text x="600" y="910" text-anchor="middle" font-family="'Hiragino Maru Gothic ProN','Yu Gothic',Meiryo,sans-serif" font-size="142" font-weight="900" fill="#f21b75" letter-spacing="10">コメットさん</text><g fill="#f21b75"><text x="600" y="1040" text-anchor="middle" font-family="'Hiragino Maru Gothic ProN','Yu Gothic',Meiryo,sans-serif" font-size="82" font-weight="900" letter-spacing="20">福井</text><rect x="295" y="1000" width="185" height="8" rx="4"/><rect x="720" y="1000" width="185" height="8" rx="4"/><path d="M250 968l12 25 28 4-20 20 5 28-25-13-25 13 5-28-20-20 28-4zM950 968l12 25 28 4-20 20 5 28-25-13-25 13 5-28-20-20 28-4z"/></g></svg>